<svg width="292" height="118" viewBox="0 0 292 118" fill="none" xmlns="http://www.w3.org/2000/svg">
<path d="M111.525 88.9536C102.136 88.9536 96.0508 83.3478 96.0508 76.4167C96.0508 69.4852 102.136 63.8359 111.525 63.8359C122.133 63.8359 127.653 71.0252 126.088 77.401H98.7023C99.2238 82.4922 104.092 86.7296 111.612 86.7296C116.307 86.7296 120.828 84.7615 123.046 81.6384L125.35 82.3663C122.959 86.0887 117.741 88.9554 111.527 88.9554L111.525 88.9536ZM123.655 75.5593C123.915 70.8943 119.827 66.0164 111.612 66.0164C104.005 66.0164 99.2238 70.4232 98.7023 75.5593H123.655Z" fill="#00AC86"/>
<path d="M131.559 87.8841V53.1797H134.384V87.8841H131.559Z" fill="#00AC86"/>
<path d="M155.113 88.9536C145.724 88.9536 139.639 83.3478 139.639 76.4167C139.639 69.4852 145.724 63.8359 155.113 63.8359C165.721 63.8359 171.24 71.0252 169.676 77.401H142.288C142.81 82.4922 147.679 86.7296 155.198 86.7296C159.893 86.7296 164.414 84.7615 166.632 81.6384L168.936 82.3663C166.545 86.0887 161.329 88.9554 155.113 88.9554V88.9536ZM167.241 75.5593C167.501 70.8943 163.417 66.0164 155.2 66.0164C147.593 66.0164 142.812 70.4232 142.29 75.5593H167.241Z" fill="#00AC86"/>
<path d="M190.861 88.9536C181.471 88.9536 175.342 83.3478 175.342 76.4167C175.342 69.4852 181.471 63.8359 190.861 63.8359C193.904 63.8359 196.729 64.5638 198.772 65.5467V67.9859C197.164 67.0012 194.425 66.102 191.165 66.102C183.254 66.102 178.037 70.767 178.037 76.4149C178.037 82.0628 183.254 86.6843 191.165 86.6843C194.425 86.6843 196.816 85.743 198.772 84.631V87.1553C196.555 88.2243 193.859 88.9522 190.861 88.9522V88.9536Z" fill="#00AC86"/>
<path d="M216.536 55.3633V64.1361H225.785V66.2763H216.536V87.8854H213.666V66.2763H204.339V64.1361H213.666V55.7488L216.536 55.3633Z" fill="#00AC86"/>
<path d="M242.144 66.4042C237.839 66.4042 233.928 69.7855 233.928 76.7171V87.8851H231.059V64.9063H233.668V70.5541C235.101 66.6171 238.276 63.8359 242.883 63.8359C245.666 63.8359 247.97 64.7772 249.752 66.1474L248.578 68.5009C246.622 67.0465 244.318 66.4042 242.145 66.4042H242.144Z" fill="#00AC86"/>
<path d="M257.046 57.375C258.002 57.375 258.829 58.145 258.829 59.0441C258.829 59.9433 258.002 60.7133 257.046 60.7133C256.09 60.7133 255.177 59.9433 255.177 59.0441C255.177 58.145 256.048 57.375 257.046 57.375ZM255.613 87.8841V64.9053H258.439V87.8841H255.613Z" fill="#00AC86"/>
<path d="M283.737 88.9536C274.347 88.9536 268.218 83.3478 268.218 76.4167C268.218 69.4852 274.347 63.8359 283.737 63.8359C286.78 63.8359 289.605 64.5638 291.648 65.5467V67.9859C290.04 67.0012 287.302 66.102 284.042 66.102C276.13 66.102 270.914 70.767 270.914 76.4149C270.914 82.0628 276.13 86.6843 284.042 86.6843C287.302 86.6843 289.692 85.743 291.648 84.631V87.1553C289.431 88.2243 286.737 88.9522 283.737 88.9522V88.9536Z" fill="#00AC86"/>
<path d="M165.031 4.87637L168.007 9.59453C169.506 11.9706 172.096 13.3878 174.935 13.3878H177.631L168.064 0H162.23L152.403 13.3895H159.684L165.031 4.87799V4.87637Z" fill="#00AC86"/>
<path d="M22.4677 22.4041C10.6532 21.476 8.88885 17.0016 8.88885 14.4173C8.88885 10.7564 12.8915 7.06322 21.8315 7.06322C30.7715 7.06322 35.0906 11.3262 35.6481 15.2857L35.7153 15.7619L42.0727 15.3229L42.0284 14.8031C41.4463 8.04624 34.3035 1.20703 21.7757 1.20703C10.6581 1.20703 2.59052 6.76294 2.59052 14.4173C2.59052 22.0717 9.73494 26.693 22.189 27.5727C31.8537 28.3071 36.7533 31.1093 36.7533 35.9017C36.7533 40.6942 30.3271 44.4035 22.1217 44.4035C16.2366 44.4035 11.1189 42.5101 8.42972 39.3383C6.43412 36.9816 3.61209 35.6064 0.688393 35.5644L0.0849609 35.5547L0.163669 36.1455C1.29346 44.5891 10.117 50.2595 22.1217 50.2595C34.1264 50.2595 43.05 43.8192 43.05 35.9017C43.05 30.37 39.4786 23.5389 22.4677 22.4041Z" fill="#00AC86"/>
<path d="M79.5822 18.3359L65.7164 40.8551L50.6798 18.3359H43.6172L62.4973 47.2987L54.7185 60.4575H57.6127C59.8294 60.4575 61.9105 59.2904 63.0433 57.413L86.5935 18.3376H79.5803L79.5822 18.3359Z" fill="#00AC86"/>
<path d="M103.594 31.054C97.8256 30.9442 94.3816 29.3511 94.3816 26.7926C94.3816 24.6038 96.9923 22.2455 102.727 22.2455C107.3 22.2455 111.62 23.3077 114.892 25.235L115.682 25.7015V20.6185L115.443 20.4667C111.652 18.0697 107.149 16.9043 101.679 16.9043C93.0587 16.9043 88.5477 21.7064 88.5477 26.4488C88.5477 32.0661 94.0263 35.6592 102.841 35.8222C108.797 35.9836 111.944 37.4961 111.944 40.1982C111.944 42.4306 108.733 44.8034 102.784 44.8034C98.9635 44.8034 94.9868 44.0028 91.586 42.5485C90.4284 42.0513 89.1561 42.0561 87.9985 42.5597C87.0046 42.9923 86.2338 43.7268 85.7714 44.6856L85.5859 45.0698L85.9352 45.32C90.4185 48.5517 96.3857 50.2592 103.192 50.2592C111.643 50.2592 117.545 46.2158 117.545 40.4274C117.545 36.292 115.125 31.3075 103.594 31.0524V31.054Z" fill="#00AC86"/>
<path d="M135.005 5.35156L128.298 6.2878V16.6184H119.277V21.5029H128.298V44.3496C128.298 47.8102 130.933 50.6918 134.427 51.0518L135.005 51.1115V21.5012H144.2V16.6168H135.005V5.35156Z" fill="#00AC86"/>
<path d="M165.521 16.9039C153.597 16.9039 144.942 23.9304 144.942 33.6105C144.942 43.2906 153.597 50.2589 165.521 50.2589C172.915 50.2589 179.761 47.1937 183.39 42.2591L183.851 41.6312L183.085 41.4569C180.386 40.8419 177.632 41.2697 175.335 42.6611C172.627 44.3011 169.204 45.2033 165.697 45.2033C158.044 45.2033 152.326 41.5166 151.129 35.8122L151.095 35.6492H185.093L185.185 35.2472C186.056 31.3845 185.093 27.2991 182.541 24.0369C178.994 19.5027 172.79 16.9023 165.523 16.9023L165.521 16.9039ZM151.149 31.5702L151.188 31.4039C152.534 25.5978 158.231 21.8449 165.698 21.8449C174.425 21.8449 179.049 26.668 179.107 31.433V31.5702H151.15H151.149Z" fill="#00AC86"/>
<path d="M232.333 16.9043C227.069 16.9043 222.871 19.2561 220.817 23.3593L220.689 23.616L220.568 23.3561C218.654 19.2561 214.415 16.9043 208.938 16.9043C203.983 16.9043 199.913 19.0302 197.768 22.7346L197.509 23.1818V18.336H191.617V42.0319C191.617 45.5266 194.279 48.4318 197.807 48.7918L198.383 48.8515V29.4867C198.383 25.1704 202.125 21.7888 206.902 21.7888C211.678 21.7888 215.013 24.7846 215.013 28.9153V42.0916C215.013 45.554 217.648 48.4351 221.144 48.7937L221.72 48.8534V29.4883C221.72 25.172 225.486 21.7903 230.298 21.7903C235.109 21.7903 238.41 24.7862 238.41 28.9169V42.0932C238.41 45.5556 241.045 48.4369 244.541 48.7951L245.116 48.8548V28.9169C245.116 21.6209 240.099 16.9075 232.334 16.9075L232.333 16.9043Z" fill="#00AC86"/>
<path d="M289.041 24.0389C285.494 19.5047 279.291 16.9043 272.023 16.9043C260.099 16.9043 251.444 23.9307 251.444 33.6108C251.444 43.2909 260.099 50.2592 272.023 50.2592C279.417 50.2592 286.263 47.194 289.892 42.2595L290.353 41.6316L289.585 41.4572C286.883 40.8455 284.132 41.27 281.836 42.6614C279.13 44.3014 275.706 45.2037 272.198 45.2037C264.544 45.2037 258.825 41.5186 257.63 35.8126L257.595 35.6495H291.594L291.686 35.2476C292.558 31.3849 291.594 27.2995 289.041 24.0373V24.0389ZM257.651 31.5705L257.689 31.4043C259.035 25.5982 264.73 21.8452 272.198 21.8452C280.922 21.8452 285.548 26.6683 285.606 31.4333V31.5705H257.649H257.651Z" fill="#00AC86"/>
<path d="M3.53697 103.421C2.98765 103.421 2.46948 103.486 1.98247 103.617C1.49546 103.748 1.04617 103.904 0.634586 104.088L0 102.708C0.500129 102.481 1.05437 102.303 1.66108 102.177C2.26779 102.051 2.90238 101.986 3.56156 101.986C4.50115 101.986 5.32595 102.128 6.03595 102.413C6.746 102.697 7.33465 103.103 7.80528 103.635C8.27586 104.165 8.62842 104.795 8.86456 105.521C9.10069 106.25 9.21876 107.058 9.21876 107.944C9.21876 109.211 9.00558 110.312 8.57922 111.249C8.15291 112.185 7.51009 112.91 6.64925 113.42C5.78836 113.931 4.70613 114.186 3.40415 114.186C2.70561 114.186 2.10545 114.144 1.60205 114.06C1.09864 113.977 0.603433 113.848 0.113144 113.674V112.246C0.624751 112.387 1.12979 112.507 1.62992 112.608C2.13005 112.708 2.65477 112.758 3.20574 112.758C3.88788 112.758 4.48639 112.666 5.00292 112.482C5.51946 112.298 5.95563 112.028 6.30979 111.674C6.66399 111.321 6.93618 110.884 7.1264 110.367C7.31663 109.851 7.41991 109.258 7.43634 108.593H1.65616V107.165H7.42155C7.38385 106.575 7.26414 106.049 7.06739 105.589C6.86895 105.129 6.60334 104.737 6.26716 104.413C5.93103 104.088 5.5342 103.841 5.07508 103.674C4.61593 103.506 4.10268 103.421 3.53697 103.421Z" fill="#00AC86"/>
<path d="M13.3261 105.076V108.755H17.9863V105.076H19.636V114.023H17.9863V110.069H13.3261V114.023H11.6602V105.076H13.3261Z" fill="#00AC86"/>
<path d="M26.038 104.914C26.83 104.914 27.5089 105.08 28.0746 105.413C28.6403 105.745 29.0749 106.215 29.3782 106.822C29.6799 107.429 29.8324 108.142 29.8324 108.965V109.89H23.6637C23.68 110.847 23.9309 111.584 24.4146 112.095C24.8984 112.607 25.5772 112.862 26.4512 112.862C27.0284 112.862 27.5433 112.809 27.9942 112.699C28.4452 112.591 28.9125 112.431 29.3963 112.219V113.591C28.9404 113.796 28.4812 113.948 28.0238 114.042C27.5646 114.137 27.0153 114.184 26.3774 114.184C25.4969 114.184 24.7262 114.011 24.0637 113.664C23.4013 113.317 22.8847 112.806 22.5174 112.126C22.1485 111.447 21.9648 110.609 21.9648 109.613C21.9648 108.617 22.1321 107.784 22.4682 107.083C22.8044 106.383 23.2766 105.845 23.8866 105.472C24.4967 105.1 25.2149 104.912 26.0397 104.912L26.038 104.914ZM26.0298 106.181C25.3591 106.181 24.8197 106.396 24.413 106.827C24.0064 107.258 23.7669 107.873 23.6948 108.673H28.1648C28.1599 108.181 28.0795 107.748 27.9254 107.374C27.7712 107.001 27.5384 106.709 27.2285 106.497C26.9186 106.286 26.5185 106.181 26.0282 106.181H26.0298Z" fill="#00AC86"/>
<path d="M36.554 104.914C37.6592 104.914 38.543 105.3 39.2055 106.071C39.868 106.843 40.1992 107.994 40.1992 109.526C40.1992 110.542 40.0467 111.396 39.7417 112.087C39.4367 112.778 39.0071 113.299 38.4545 113.654C37.9019 114.01 37.2541 114.186 36.5114 114.186C36.044 114.186 35.6341 114.124 35.2832 114.003C34.9306 113.882 34.6305 113.719 34.3797 113.516C34.1288 113.312 33.9189 113.094 33.7483 112.862H33.6418C33.6631 113.074 33.6877 113.319 33.7123 113.597C33.7369 113.876 33.75 114.126 33.75 114.347V118H32.084V105.074H33.445L33.668 106.357H33.75C33.9205 106.092 34.1304 105.85 34.3813 105.631C34.6322 105.411 34.9355 105.236 35.293 105.107C35.6505 104.977 36.0703 104.912 36.5556 104.912L36.554 104.914ZM36.1752 106.261C35.5931 106.261 35.1258 106.375 34.7765 106.599C34.4272 106.823 34.1714 107.157 34.0091 107.602C33.8467 108.045 33.7598 108.602 33.75 109.274V109.534C33.75 110.249 33.8271 110.851 33.9812 111.34C34.1353 111.831 34.3911 112.203 34.7486 112.46C35.106 112.717 35.5865 112.846 36.1916 112.846C36.7081 112.846 37.1393 112.709 37.4821 112.433C37.8264 112.156 38.0806 111.768 38.2495 111.264C38.4167 110.76 38.5004 110.176 38.5004 109.51C38.5004 108.497 38.3102 107.703 37.9314 107.127C37.5526 106.551 36.9672 106.261 36.1752 106.261Z" fill="#00AC86"/>
<path d="M48.2159 105.076V106.4H44.1738V114.023H42.5078V105.076H48.2159Z" fill="#00AC86"/>
<path d="M51.5802 105.076V110.175C51.5802 110.3 51.5755 110.461 51.5675 110.658C51.5591 110.855 51.5478 111.063 51.5347 111.279C51.5215 111.496 51.5084 111.699 51.4966 111.888C51.4854 112.077 51.4755 112.224 51.4638 112.327L56.2226 105.076H58.2427V114.023H56.6752V109.023C56.6752 108.823 56.6799 108.576 56.6883 108.28C56.6963 107.985 56.7095 107.7 56.7259 107.423C56.7423 107.147 56.7541 106.934 56.7588 106.782L52.0168 114.025H49.9883V105.078H51.5802V105.076Z" fill="#00AC86"/>
<path d="M61.7664 114.025H59.8857L62.4584 110.314C62.0959 110.222 61.7565 110.073 61.4434 109.867C61.1303 109.662 60.8777 109.384 60.6843 109.034C60.4923 108.685 60.3956 108.256 60.3956 107.748C60.3956 106.88 60.7007 106.221 61.3105 105.762C61.9208 105.305 62.7175 105.076 63.7029 105.076H67.7777V114.023H66.1201V110.5H64.0573L61.765 114.023L61.7664 114.025ZM62.0142 107.757C62.0142 108.249 62.1959 108.619 62.5583 108.866C62.9208 109.113 63.4325 109.236 64.0935 109.236H66.1215V106.361H63.8292C63.1916 106.361 62.7292 106.492 62.4438 106.755C62.1584 107.018 62.0142 107.352 62.0142 107.757Z" fill="#00AC86"/>
<path d="M70.3604 113.097C70.3604 112.686 70.465 112.395 70.6782 112.224C70.8899 112.053 71.1472 111.969 71.449 111.969C71.7509 111.969 72.018 112.054 72.233 112.224C72.4475 112.393 72.5541 112.686 72.5541 113.097C72.5541 113.509 72.4475 113.79 72.233 113.973C72.018 114.158 71.7574 114.25 71.449 114.25C71.1406 114.25 70.8899 114.158 70.6782 113.973C70.4669 113.79 70.3604 113.497 70.3604 113.097Z" fill="#00AC86"/>
<path d="M83.6742 114.025H81.9752V103.593H78.3135V102.156H87.3289V103.593H83.6756V114.025H83.6742Z" fill="#00AC86"/>
<path d="M92.5154 104.914C93.3073 104.914 93.9866 105.08 94.5523 105.413C95.118 105.745 95.5523 106.215 95.8555 106.822C96.1574 107.429 96.31 108.142 96.31 108.965V109.89H90.1413C90.1578 110.847 90.4085 111.584 90.892 112.095C91.376 112.607 92.0548 112.862 92.929 112.862C93.5059 112.862 94.0209 112.809 94.4716 112.699C94.9227 112.591 95.3898 112.431 95.8738 112.219V113.591C95.418 113.796 94.9589 113.948 94.5012 114.042C94.042 114.137 93.4928 114.184 92.8548 114.184C91.9746 114.184 91.2037 114.011 90.5413 113.664C89.8789 113.317 89.362 112.806 88.9949 112.126C88.6259 111.447 88.4424 110.609 88.4424 109.613C88.4424 108.617 88.6095 107.784 88.9456 107.083C89.2818 106.383 89.754 105.845 90.3643 105.472C90.9741 105.1 91.6924 104.912 92.5172 104.912L92.5154 104.914ZM92.5074 106.181C91.8365 106.181 91.2971 106.396 90.8906 106.827C90.484 107.258 90.2446 107.873 90.1723 108.673H94.6425C94.6373 108.181 94.557 107.748 94.403 107.374C94.2486 107.001 94.0157 106.709 93.7059 106.497C93.3961 106.286 92.9961 106.181 92.5055 106.181H92.5074Z" fill="#00AC86"/>
<path d="M100.647 109.444L97.5624 105.076H99.4515L101.686 108.372L103.921 105.076H105.794L102.701 109.444L105.96 114.023H104.07L101.686 110.524L99.2857 114.023H97.4131L100.647 109.444Z" fill="#00AC86"/>
<path d="M109.3 105.076V108.755H113.96V105.076H115.61V114.023H113.96V110.069H109.3V114.023H107.634V105.076H109.3Z" fill="#00AC86"/>
<path d="M126.39 109.534C126.39 110.27 126.291 110.927 126.096 111.503C125.901 112.079 125.617 112.567 125.247 112.964C124.876 113.363 124.429 113.664 123.907 113.872C123.384 114.081 122.793 114.186 122.134 114.186C121.518 114.186 120.954 114.081 120.439 113.872C119.924 113.664 119.481 113.361 119.107 112.964C118.734 112.567 118.445 112.079 118.242 111.503C118.038 110.927 117.937 110.27 117.937 109.534C117.937 108.554 118.107 107.719 118.448 107.029C118.789 106.338 119.278 105.813 119.912 105.453C120.547 105.093 121.305 104.914 122.185 104.914C123.066 104.914 123.754 105.095 124.387 105.458C125.021 105.821 125.512 106.346 125.863 107.033C126.216 107.721 126.391 108.554 126.391 109.534H126.39ZM119.634 109.534C119.634 110.221 119.722 110.812 119.903 111.308C120.081 111.803 120.357 112.182 120.727 112.449C121.098 112.715 121.579 112.846 122.167 112.846C122.756 112.846 123.22 112.714 123.594 112.449C123.968 112.184 124.243 111.803 124.419 111.308C124.594 110.812 124.683 110.221 124.683 109.534C124.683 108.846 124.594 108.267 124.419 107.779C124.243 107.292 123.969 106.919 123.599 106.659C123.228 106.399 122.744 106.27 122.151 106.27C121.282 106.27 120.645 106.555 120.242 107.127C119.839 107.698 119.635 108.501 119.635 109.534H119.634Z" fill="#00AC86"/>
<path d="M135.833 114.023H134.158V106.392H131.518C131.409 107.777 131.271 108.961 131.107 109.945C130.941 110.928 130.734 111.728 130.484 112.348C130.233 112.968 129.929 113.423 129.572 113.712C129.214 114.001 128.783 114.146 128.276 114.146C128.095 114.146 127.924 114.134 127.765 114.109C127.606 114.085 127.468 114.048 127.352 113.999V112.732C127.434 112.765 127.522 112.787 127.616 112.802C127.709 112.815 127.807 112.823 127.913 112.823C128.137 112.823 128.345 112.732 128.536 112.55C128.726 112.369 128.898 112.085 129.055 111.698C129.213 111.31 129.356 110.815 129.485 110.208C129.614 109.601 129.728 108.873 129.828 108.019C129.926 107.167 130.015 106.185 130.092 105.076H135.833V114.023Z" fill="#00AC86"/>
<path d="M146.597 109.534C146.597 110.27 146.498 110.927 146.303 111.503C146.108 112.079 145.824 112.567 145.453 112.964C145.083 113.363 144.636 113.664 144.114 113.872C143.591 114.081 143.001 114.186 142.341 114.186C141.725 114.186 141.161 114.081 140.646 113.872C140.131 113.664 139.688 113.361 139.314 112.964C138.941 112.567 138.652 112.079 138.449 111.503C138.245 110.927 138.144 110.27 138.144 109.534C138.144 108.554 138.314 107.719 138.655 107.029C138.996 106.338 139.483 105.813 140.119 105.453C140.754 105.093 141.512 104.914 142.392 104.914C143.273 104.914 143.962 105.095 144.594 105.458C145.227 105.821 145.719 106.346 146.07 107.033C146.423 107.721 146.598 108.554 146.598 109.534H146.597ZM139.841 109.534C139.841 110.221 139.929 110.812 140.11 111.308C140.288 111.803 140.564 112.182 140.934 112.449C141.305 112.715 141.786 112.846 142.374 112.846C142.963 112.846 143.427 112.714 143.801 112.449C144.175 112.184 144.45 111.803 144.626 111.308C144.801 110.812 144.89 110.221 144.89 109.534C144.89 108.846 144.801 108.267 144.626 107.779C144.45 107.292 144.177 106.919 143.804 106.659C143.433 106.399 142.95 106.27 142.356 106.27C141.487 106.27 140.851 106.555 140.448 107.127C140.042 107.698 139.841 108.501 139.841 109.534Z" fill="#00AC86"/>
<path d="M154.597 105.076V106.4H150.555V114.023H148.889V105.076H154.597Z" fill="#00AC86"/>
<path d="M157.961 105.076V110.175C157.961 110.3 157.958 110.461 157.948 110.658C157.94 110.855 157.929 111.063 157.916 111.279C157.902 111.496 157.889 111.699 157.877 111.888C157.866 112.077 157.856 112.224 157.845 112.327L162.603 105.076H164.624V114.023H163.056V109.023C163.056 108.823 163.059 108.576 163.069 108.28C163.077 107.985 163.09 107.7 163.107 107.423C163.123 107.147 163.135 106.934 163.14 106.782L158.398 114.025H156.369V105.078H157.961V105.076Z" fill="#00AC86"/>
<path d="M169.054 105.076V110.175C169.054 110.3 169.051 110.461 169.041 110.658C169.033 110.855 169.021 111.063 169.008 111.279C168.995 111.496 168.982 111.699 168.971 111.888C168.959 112.077 168.95 112.224 168.938 112.327L173.697 105.076H175.717V114.023H174.149V109.023C174.149 108.823 174.153 108.576 174.162 108.28C174.17 107.985 174.184 107.7 174.2 107.423C174.216 107.147 174.228 106.934 174.233 106.782L169.49 114.025H167.462V105.078H169.054V105.076Z" fill="#00AC86"/>
<path d="M178.317 113.097C178.317 112.686 178.424 112.395 178.635 112.224C178.847 112.053 179.104 111.969 179.406 111.969C179.707 111.969 179.975 112.054 180.19 112.224C180.405 112.393 180.511 112.686 180.511 113.097C180.511 113.509 180.405 113.79 180.19 113.973C179.975 114.158 179.714 114.25 179.406 114.25C179.098 114.25 178.847 114.158 178.635 113.973C178.424 113.79 178.317 113.497 178.317 113.097Z" fill="#00AC86"/>
<path d="M197.016 114.025H195.326V108.545H189.378V114.025H187.688V102.154H189.378V107.107H195.326V102.154H197.016V114.025Z" fill="#00AC86"/>
<path d="M203.532 104.921C204.654 104.921 205.492 105.167 206.047 105.656C206.603 106.147 206.881 106.918 206.881 107.974V114.022H205.693L205.372 112.723H205.306C205.054 113.047 204.79 113.318 204.514 113.534C204.239 113.751 203.922 113.914 203.562 114.022C203.201 114.13 202.763 114.185 202.247 114.185C201.697 114.185 201.207 114.088 200.779 113.893C200.349 113.698 200.013 113.404 199.769 113.012C199.524 112.62 199.401 112.121 199.401 111.514C199.401 110.605 199.756 109.914 200.466 109.443C201.176 108.971 202.25 108.715 203.691 108.671L205.259 108.607V108.103C205.259 107.404 205.101 106.912 204.785 106.626C204.468 106.339 204.027 106.195 203.462 106.195C202.994 106.195 202.547 106.261 202.117 106.394C201.687 106.526 201.276 106.684 200.881 106.868L200.352 105.683C200.782 105.467 201.269 105.286 201.817 105.139C202.365 104.994 202.937 104.92 203.537 104.92L203.532 104.921ZM205.239 109.678L203.968 109.735C202.917 109.772 202.179 109.945 201.755 110.25C201.328 110.557 201.115 110.983 201.115 111.528C201.115 112.005 201.261 112.353 201.553 112.576C201.845 112.799 202.228 112.908 202.707 112.908C203.443 112.908 204.05 112.703 204.526 112.295C205.001 111.887 205.239 111.281 205.239 110.481V109.677V109.678Z" fill="#00AC86"/>
<path d="M216.686 105.078V112.709H217.998V117.142H216.43V114.023H210.079V117.142H208.536V112.709H209.263C209.752 112.033 210.16 111.283 210.482 110.456C210.807 109.631 211.057 108.761 211.234 107.849C211.409 106.937 211.511 106.012 211.539 105.076H216.686V105.078ZM215.061 106.353H212.982C212.921 107.111 212.804 107.874 212.631 108.642C212.457 109.41 212.234 110.143 211.958 110.842C211.683 111.541 211.359 112.162 210.986 112.709H215.061V106.353Z" fill="#00AC86"/>
<path d="M223.293 104.914C224.085 104.914 224.764 105.08 225.329 105.413C225.895 105.745 226.33 106.215 226.633 106.822C226.935 107.429 227.087 108.142 227.087 108.965V109.89H220.918C220.935 110.847 221.186 111.584 221.669 112.095C222.153 112.607 222.832 112.862 223.706 112.862C224.283 112.862 224.798 112.809 225.249 112.699C225.7 112.591 226.167 112.431 226.651 112.219V113.591C226.195 113.796 225.738 113.948 225.279 114.042C224.819 114.137 224.27 114.184 223.632 114.184C222.751 114.184 221.981 114.011 221.319 113.664C220.656 113.317 220.139 112.806 219.772 112.126C219.403 111.447 219.22 110.609 219.22 109.613C219.22 108.617 219.387 107.784 219.723 107.083C220.058 106.383 220.531 105.845 221.141 105.472C221.751 105.1 222.47 104.912 223.295 104.912L223.293 104.914ZM223.285 106.181C222.614 106.181 222.074 106.396 221.668 106.827C221.261 107.258 221.021 107.873 220.95 108.673H225.419C225.415 108.181 225.334 107.748 225.18 107.374C225.026 107.001 224.793 106.709 224.483 106.497C224.173 106.286 223.773 106.181 223.283 106.181H223.285Z" fill="#00AC86"/>
<path d="M240.565 105.076L236.895 109.412L240.888 114.023H239.039L235.187 109.485V114.023H233.645V109.485L229.801 114.023H227.953L231.944 109.412L228.266 105.076H230.049L233.645 109.42V105.076H235.187V109.42L238.792 105.076H240.565Z" fill="#00AC86"/>
<path d="M244.005 105.076V108.755H248.665V105.076H250.315V114.023H248.665V110.069H244.005V114.023H242.339V105.076H244.005Z" fill="#00AC86"/>
<path d="M261.093 109.534C261.093 110.27 260.994 110.927 260.799 111.503C260.604 112.079 260.32 112.567 259.95 112.964C259.579 113.363 259.131 113.664 258.61 113.872C258.087 114.081 257.497 114.186 256.838 114.186C256.221 114.186 255.657 114.081 255.142 113.872C254.627 113.664 254.184 113.361 253.81 112.964C253.436 112.567 253.148 112.079 252.944 111.503C252.741 110.927 252.64 110.27 252.64 109.534C252.64 108.554 252.81 107.719 253.151 107.029C253.492 106.338 253.979 105.813 254.616 105.453C255.25 105.093 256.008 104.914 256.888 104.914C257.769 104.914 258.458 105.095 259.09 105.458C259.723 105.821 260.215 106.346 260.566 107.033C260.919 107.721 261.094 108.554 261.094 109.534H261.093ZM254.338 109.534C254.338 110.221 254.427 110.812 254.606 111.308C254.784 111.803 255.06 112.182 255.431 112.449C255.801 112.715 256.281 112.846 256.87 112.846C257.459 112.846 257.923 112.714 258.297 112.449C258.671 112.184 258.946 111.803 259.121 111.308C259.297 110.812 259.386 110.221 259.386 109.534C259.386 108.846 259.297 108.267 259.121 107.779C258.946 107.292 258.672 106.919 258.3 106.659C257.929 106.399 257.445 106.27 256.852 106.27C255.983 106.27 255.347 106.555 254.943 107.127C254.538 107.698 254.337 108.501 254.337 109.534H254.338Z" fill="#00AC86"/>
<path d="M267.04 114.186C266.204 114.186 265.473 114.021 264.846 113.69C264.22 113.361 263.735 112.856 263.39 112.176C263.046 111.497 262.875 110.638 262.875 109.598C262.875 108.559 263.059 107.629 263.428 106.94C263.797 106.249 264.307 105.739 264.958 105.41C265.609 105.08 266.356 104.914 267.198 104.914C267.693 104.914 268.155 104.963 268.588 105.059C269.019 105.156 269.382 105.279 269.672 105.424L269.177 106.748C268.869 106.628 268.537 106.524 268.183 106.431C267.829 106.339 267.491 106.294 267.173 106.294C266.591 106.294 266.107 106.42 265.725 106.672C265.343 106.924 265.056 107.294 264.863 107.781C264.671 108.268 264.574 108.869 264.574 109.584C264.574 110.299 264.669 110.862 264.858 111.342C265.048 111.821 265.328 112.184 265.699 112.434C266.07 112.683 266.533 112.807 267.089 112.807C267.578 112.807 268.019 112.753 268.409 112.644C268.8 112.536 269.161 112.397 269.49 112.229V113.666C269.17 113.839 268.819 113.97 268.434 114.055C268.049 114.142 267.585 114.184 267.04 114.184V114.186Z" fill="#00AC86"/>
<path d="M278.157 106.4H275.171V114.023H273.522V106.4H270.568V105.076H278.157V106.4Z" fill="#00AC86"/>
<path d="M281.589 108.706H284.113C284.926 108.706 285.602 108.803 286.138 108.995C286.674 109.187 287.076 109.473 287.342 109.852C287.609 110.232 287.742 110.703 287.742 111.265C287.742 111.826 287.614 112.315 287.358 112.725C287.102 113.137 286.705 113.457 286.166 113.683C285.627 113.91 284.928 114.023 284.07 114.023H279.922V105.076H281.587V108.705L281.589 108.706ZM286.084 111.321C286.084 110.824 285.9 110.476 285.535 110.278C285.169 110.081 284.651 109.981 283.98 109.981H281.587V112.774H283.997C284.613 112.774 285.115 112.661 285.502 112.437C285.889 112.212 286.084 111.839 286.084 111.32V111.321Z" fill="#00AC86"/>
<path d="M289.746 113.097C289.746 112.686 289.853 112.395 290.064 112.224C290.276 112.053 290.533 111.969 290.835 111.969C291.137 111.969 291.404 112.054 291.619 112.224C291.833 112.393 291.94 112.686 291.94 113.097C291.94 113.509 291.833 113.79 291.619 113.973C291.404 114.158 291.143 114.25 290.835 114.25C290.526 114.25 290.276 114.158 290.064 113.973C289.853 113.79 289.746 113.497 289.746 113.097Z" fill="#00AC86"/>
</svg>
